<?xml version="1.0" standalone="no"?> <!DOCTYPE svg PUBLIC "-//W3C//DTD SVG 1.0//EN" "http://www.w3.org/TR/2001/REC-SVG-20010904/DTD/svg10.dtd" > <svg xmlns="http://www.w3.org/2000/svg" width="100%" height="100%">
<defs >
<font id="kalinga" horiz-adv-x="1197" ><font-face
    font-family="Kalinga"
    units-per-em="2048"
    panose-1="2 11 5 2 4 2 4 2 2 3"
    ascent="2040"
    descent="-1000"
    alphabetic="0" />
<missing-glyph horiz-adv-x="1032" d="M129 903H903V0H129V903ZM838 64V838H193V64H838Z" />
<glyph unicode=" " glyph-name="space" horiz-adv-x="556" d="" />
<glyph unicode="!" glyph-name="exclam" horiz-adv-x="619" d="M368 397H254L232 1454H390L368 397ZM230 0V175H387V0H230Z" />
<glyph unicode="&quot;" glyph-name="quotedbl" horiz-adv-x="792" d="M630 1066H520L498 1454H649L630 1066ZM275 1066H165L143 1454H294L275 1066Z" />
<glyph unicode="#" glyph-name="numbersign" horiz-adv-x="1195" d="M942 926L858 526H1129V431H838L748 0H653L744 431H344L254 0H161L252 431H40V526H271L357 926H93V1017H377L467 1450H560L470 1017H869L962 1450H1057L964 1017H1182V926H942ZM450 926L365
526H765L849 926H450Z" />
<glyph unicode="$" glyph-name="dollar" horiz-adv-x="1198" d="M1120 395Q1120 317 1091 252T1003 136T852 56T637 21V-142H560V21Q335 27 210 120T46 379L183 412Q195 353 221 304T293 219T404 162T560 137V702Q553 703 544 706Q535 708 529 709Q453 729 379
755T246 824T151 931T115 1093Q115 1178 148 1240T241 1344T382 1406T560 1431V1561H637V1431Q743 1427 820 1405T950 1342T1038 1245T1091 1112L953 1081Q942 1134 918 1176T857 1248T765 1295T637 1317V809Q645 808 651 808Q657 808 663 805Q747 784 828 758T974
687T1080 573T1120 395ZM560 1320Q475 1316 416 1298T321 1250T267 1181T250 1096Q250 1033 274 990T341 918T440 869T560 831V1320ZM984 393Q984 467 956 514T881 593T770 644T637 681V137Q713 141 776 157T886 204T958 282T984 393Z" />
<glyph unicode="%" glyph-name="percent" horiz-adv-x="1910" d="M1791 450Q1791 320 1767 232T1701 89T1601 11T1478 -13Q1413 -13 1357 10T1258 88T1193 230T1169 450Q1169 586 1192 675T1259 818T1359 892T1483 913Q1548 913 1603 892T1701 818T1767 676T1791
450ZM529 0H410L1382 1454H1500L529 0ZM433 1467Q498 1467 554 1446T651 1371T716 1229T740 1004Q740 875 716 786T650 643T551 565T430 541Q364 541 308 564T211 641T145 784T121 1004Q121 1140 145 1229T211 1371T309 1445T433 1467ZM1669 450Q1669 557 1656
628T1620 743T1562 805T1483 823Q1437 823 1401 805T1340 743T1302 628T1289 450Q1289 347 1302 276T1340 162T1400 100T1480 80Q1522 80 1557 99T1617 162T1655 276T1669 450ZM619 1004Q619 1111 607 1182T571 1296T513 1357T433 1375Q387 1375 351 1357T291 1296T253
1182T240 1004Q240 902 253 831T290 716T350 653T431 633Q473 633 507 652T567 716T605 831T619 1004Z" />
<glyph unicode="&amp;" glyph-name="ampersand" horiz-adv-x="1450" d="M1256 -13Q1209 -13 1166 -2T1084 30T1015 76T957 132Q929 104 889 77T800 28T692 -7T565 -21Q449 -21 364 10T224 94T143 220T116 374Q116 457 143 524T218 645T333 743T477 820Q459 857
443 897T414 980T394 1063T387 1142Q387 1210 407 1268T470 1370T579 1438T735 1463Q808 1463 868 1444T974 1388T1044 1298T1069 1175Q1069 1096 1031 1038T931 932T791 848T630 774Q698 646 782 528T960 298Q1028 397 1072 507T1149 752L1268 720Q1231 568 1176
447T1046 219Q1106 156 1160 129T1268 101Q1333 101 1391 119V10Q1362 0 1329 -6T1256 -13ZM944 1175Q944 1258 887 1309T734 1361Q624 1361 566 1303T508 1142Q508 1076 530 1004T587 867Q660 897 724 927T838 993T916 1073T944 1175ZM875 212Q777 328 687 455T524
719Q393 664 322 581T250 379Q250 319 270 266T329 173T429 110T570 86Q620 86 665 97T749 125T819 165T875 212Z" />
<glyph unicode="&apos;" glyph-name="quotesingle" horiz-adv-x="437" d="M275 1066H165L143 1454H294L275 1066Z" />
<glyph unicode="(" glyph-name="parenleft" horiz-adv-x="722" d="M533 -470Q439 -353 369 -240T254 -8T186 240T163 519Q163 668 185 796T253 1042T369 1272T533 1500H679Q579 1379 508 1263T392 1028T326 784T304 516Q304 374 325 249T392 4T508 -231T679 -470H533Z" />
<glyph unicode=")" glyph-name="parenright" horiz-adv-x="722" d="M560 519Q560 370 538 241T469 -7T354 -239T190 -470H44Q143 -347 214 -231T331 4T398 248T419 516Q419 658 398 783T331 1028T214 1263T44 1500H190Q284 1384 353 1272T469 1042T537 796T560 519Z" />
<glyph unicode="*" glyph-name="asterisk" horiz-adv-x="867" d="M480 1149L766 1253L808 1146L498 1067L695 811L596 751L433 1013L262 752L163 811L364 1067L57 1146L97 1258L387 1148L374 1454H494L480 1149Z" />
<glyph unicode="+" glyph-name="plus" horiz-adv-x="1142" d="M627 645V204H512V645H72V761H512V1202H627V761H1067V645H627Z" />
<glyph unicode="," glyph-name="comma" horiz-adv-x="448" d="M235 -244H137Q218 -119 218 0H146V186H304V46Q304 -3 301 -42T288 -115T266 -181T235 -244Z" />
<glyph unicode="-" glyph-name="hyphen" horiz-adv-x="688" d="M90 466V590H596V466H90Z" />
<glyph unicode="." glyph-name="period" horiz-adv-x="448" d="M144 0V186H303V0H144Z" />
<glyph unicode="/" glyph-name="slash" horiz-adv-x="841" d="M165 0H21L679 1503H817L165 0Z" />
<glyph unicode="0" glyph-name="zero" horiz-adv-x="1142" d="M1059 728Q1059 517 1021 374T916 143T760 17T569 -21Q466 -21 377 17T223 143T120 374T83 728Q83 947 120 1091T223 1321T379 1441T575 1476Q676 1476 764 1441T918 1321T1021 1092T1059 728ZM916
728Q916 909 893 1031T825 1226T717 1329T573 1360Q490 1360 426 1329T317 1225T248 1031T224 728Q224 552 248 432T316 236T425 129T570 97Q648 97 711 130T821 237T891 432T916 728Z" />
<glyph unicode="1" glyph-name="one" horiz-adv-x="1142" d="M157 0V116H547V1317L199 1095V1218L562 1454H688V116H1020V0H157Z" />
<glyph unicode="2" glyph-name="two" horiz-adv-x="1142" d="M101 0V101Q144 204 218 293T378 462T550 616Q636 690 705 763T819 914T864 1077Q864 1149 842 1202T780 1291T685 1343T562 1360Q441 1360 359 1293T262 1095L119 1109Q128 1186 159 1252T246 1368T381
1447T565 1476Q667 1476 749 1450T890 1375T979 1253T1010 1085Q1010 1007 984 938T915 806T814 685T694 572T568 462Q504 408 448 353T346 242T275 125H1031V0H101Z" />
<glyph unicode="3" glyph-name="three" horiz-adv-x="1142" d="M1046 401Q1046 199 923 89T575 -21Q445 -21 356 11T210 98T124 221T86 364L232 379Q241 316 264 265T330 176T432 118T575 97Q650 97 710 116T812 174T878 269T902 401Q902 489 864 542T769 625T646
663T524 673H421V802H520Q575 802 636 814T747 858T830 944T863 1081Q863 1210 788 1285T562 1360Q428 1360 346 1290T250 1095L110 1107Q121 1201 160 1270T260 1385T398 1453T565 1476Q681 1476 764 1446T902 1364T981 1243T1006 1093Q1006 1028 989 972T935
871T841 794T704 746V742Q792 733 856 703T962 626T1025 523T1046 401Z" />
<glyph unicode="4" glyph-name="four" horiz-adv-x="1142" d="M881 347V0H742V347H57V454L734 1454H881V461H1076V347H881ZM742 1277L186 461H742V1277Z" />
<glyph unicode="5" glyph-name="five" horiz-adv-x="1142" d="M1050 470Q1050 360 1019 270T925 115T772 15T559 -21Q448 -21 367 5T229 75T140 180T90 308L232 329Q244 285 266 243T327 168T423 115T562 95Q639 95 702 119T811 191T882 308T907 466Q907 538 884
598T816 702T709 770T566 795Q464 795 394 763T271 688H133L179 1454H966V1335H311L279 818Q330 858 405 885T587 913Q693 913 778 881T924 790T1017 650T1050 470Z" />
<glyph unicode="6" glyph-name="six" horiz-adv-x="1142" d="M1049 476Q1049 366 1019 275T931 118T789 16T593 -21Q471 -21 380 29T230 171T141 396T112 694Q112 888 146 1034T246 1278T403 1426T611 1476Q679 1476 740 1462T852 1415T941 1329T1004 1195L871
1166Q838 1269 769 1314T611 1360Q530 1360 464 1321T350 1203T278 1008T252 735Q302 836 396 889T613 942Q711 942 791 910T928 817T1017 670T1049 476ZM906 467Q906 550 885 617T824 731T723 805T586 831Q531 831 475 815T374 762T300 666T271 520Q271 431 293
354T357 220T458 130T591 97Q739 97 822 194T906 467Z" />
<glyph unicode="7" glyph-name="seven" horiz-adv-x="1142" d="M539 0H393Q393 175 432 347T540 687T698 1015T894 1329H115V1454H1033V1334Q929 1180 839 1019T682 689T577 349T539 0Z" />
<glyph unicode="8" glyph-name="eight" horiz-adv-x="1142" d="M1049 404Q1049 312 1021 234T934 100T787 11T573 -21Q450 -21 360 11T211 99T124 233T95 401Q95 481 119 543T184 651T276 724T383 761V765Q322 779 275 811T196 889T146 990T129 1107Q129 1183
157 1250T241 1367T379 1447T569 1476Q681 1476 765 1446T903 1366T985 1249T1013 1106Q1013 1045 996 990T946 889T866 812T756 766V762Q818 752 871 725T964 652T1026 544T1049 404ZM867 1099Q867 1158 851 1207T800 1291T707 1347T569 1367Q490 1367 434 1347T343
1292T291 1207T275 1099Q275 1053 287 1004T332 914T422 847T570 820Q667 820 725 846T815 914T856 1004T867 1099ZM902 415Q902 472 886 525T831 619T728 684T569 709Q482 709 420 685T317 619T259 525T240 412Q240 341 258 282T318 180T422 113T575 89Q666 89
728 112T829 178T885 282T902 415Z" />
<glyph unicode="9" glyph-name="nine" horiz-adv-x="1142" d="M1042 759Q1042 564 1006 418T903 175T743 28T533 -21Q379 -21 280 45T135 264L271 290Q302 188 367 142T534 95Q615 95 682 134T797 250T872 444T900 716Q878 663 840 622T752 551T647 508T529 493Q431
493 352 529T218 630T133 786T103 987Q103 1098 134 1188T225 1342T372 1441T569 1476Q805 1476 923 1296T1042 759ZM884 928Q884 1017 863 1095T802 1231T701 1323T562 1357Q489 1357 431 1331T333 1258T270 1141T248 987Q248 906 267 837T325 716T422 635T560
606Q614 606 671 625T776 685T853 785T884 928Z" />
<glyph unicode=":" glyph-name="colon" horiz-adv-x="448" d="M144 858V1038H303V858H144ZM144 0V179H303V0H144Z" />
<glyph unicode=";" glyph-name="semicolon" horiz-adv-x="448" d="M146 858V1038H304V858H146ZM235 -244H137Q218 -119 218 0H146V179H304V46Q304 -3 301 -42T288 -115T266 -181T235 -244Z" />
<glyph unicode="&lt;" glyph-name="less" horiz-adv-x="1142" d="M75 615V771L1069 1218V1093L186 694L1069 297V172L75 615Z" />
<glyph unicode="=" glyph-name="equal" horiz-adv-x="1142" d="M72 891V1009H1067V891H72ZM72 381V497H1067V381H72Z" />
<glyph unicode="&gt;" glyph-name="greater" horiz-adv-x="1142" d="M72 172V297L957 694L72 1093V1218L1067 771V615L72 172Z" />
<glyph unicode="?" glyph-name="question" horiz-adv-x="1178" d="M1082 1069Q1082 997 1062 943T1010 847T935 772T849 709Q805 679 763 649T688 582T634 502T613 397H476Q477 490 512 552T599 663T711 750Q770 788 821 831T906 929T940 1063Q940 1130 917 1184T850
1277T744 1336T602 1357Q529 1357 467 1334T357 1269T280 1171T244 1049L97 1059Q108 1144 145 1220T247 1353T400 1443T602 1476Q716 1476 805 1448T956 1366T1050 1237T1082 1069ZM470 0V175H627V0H470Z" />
<glyph unicode="@" glyph-name="at" horiz-adv-x="1910" d="M1854 748Q1854 600 1818 477T1718 264T1572 126T1393 76Q1315 76 1265 119T1214 254Q1214 271 1215 298T1222 347H1215Q1195 301 1156 253T1065 165T950 101T817 76Q716 76 650 113T546 207T492 334T476
473Q476 591 511 704T612 907T775 1051T996 1106Q1115 1106 1196 1050T1315 898H1324L1367 1082H1471L1351 560Q1330 471 1319 396T1307 275Q1307 240 1316 219T1339 186T1369 170T1401 165Q1468 165 1531 207T1643 326T1722 509T1752 746Q1752 888 1708 1008T1575
1218T1358 1357T1060 1407Q916 1407 795 1373T575 1277T401 1128T277 939T201 718T175 476Q175 333 217 206T346 -16T566 -168T881 -224Q974 -224 1060 -212T1224 -177T1375 -124T1513 -59L1553 -135Q1491 -170 1420 -203T1266 -261T1086 -301T875 -317Q677 -317
526 -254T274 -83T122 169T70 476Q70 619 102 750T194 996T341 1203T538 1362T780 1464T1059 1500Q1264 1500 1413 1440T1661 1276T1807 1036T1854 748ZM1272 751Q1272 809 1251 857T1191 940T1099 994T983 1014Q881 1014 806 965T682 836T610 663T586 476Q586
405 601 349T648 252T726 191T838 169Q899 169 960 196T1076 276T1174 402T1241 569Q1247 590 1252 614T1262 663T1269 711T1272 751Z" />
<glyph unicode="A" glyph-name="A" horiz-adv-x="1311" d="M1152 0L980 450H329L159 0H4L569 1454H744L1308 0H1152ZM746 1081Q729 1125 713 1169T685 1249T665 1308Q657 1331 655 1334Q654 1329 647 1305T627 1246T599 1167T566 1081L372 570H940L746 1081Z" />
<glyph unicode="B" glyph-name="B" horiz-adv-x="1410" d="M1289 410Q1289 299 1247 221T1132 94T965 23T765 0H199V1454H704Q822 1454 914 1434T1071 1372T1170 1263T1205 1103Q1205 1042 1188 988T1136 889T1050 814T928 766Q1015 757 1083 726T1196 648T1265
541T1289 410ZM1053 1089Q1053 1218 965 1276T698 1335H347V817H699Q792 817 859 837T968 892T1032 978T1053 1089ZM1138 419Q1138 491 1108 545T1025 634T897 687T730 704H347V116H742Q824 116 896 131T1022 183T1107 276T1138 419Z" />
<glyph unicode="C" glyph-name="C" horiz-adv-x="1482" d="M801 -21Q631 -21 505 35T296 192T173 431T132 734Q132 904 172 1041T295 1275T501 1423T791 1476Q916 1476 1009 1447T1168 1370T1280 1263T1354 1143L1222 1093Q1198 1142 1162 1188T1073 1271T951
1329T792 1351Q659 1351 563 1307T405 1183T313 988T283 734Q283 595 315 480T412 280T574 150T801 103Q894 103 968 130T1098 200T1195 298T1259 406L1384 348Q1348 279 1296 213T1173 95T1010 11T801 -21Z" />
<glyph unicode="D" glyph-name="D" horiz-adv-x="1566" d="M1433 742Q1433 560 1379 422T1230 190T1006 48T728 0H199V1454H663Q832 1454 973 1413T1217 1284T1376 1063T1433 742ZM1282 742Q1282 899 1237 1010T1109 1193T911 1296T658 1329H347V125H706Q831 125
936 164T1119 281T1239 474T1282 742Z" />
<glyph unicode="E" glyph-name="E" horiz-adv-x="1300" d="M199 0V1454H1158V1331H347V808H1095V688H347V123H1200V0H199Z" />
<glyph unicode="F" glyph-name="F" horiz-adv-x="1196" d="M347 1329V740H1071V615H347V0H199V1454H1099V1329H347Z" />
<glyph unicode="G" glyph-name="G" horiz-adv-x="1543" d="M801 -21Q631 -21 505 35T296 192T173 431T132 734Q132 904 172 1041T295 1275T501 1423T791 1476Q913 1476 1004 1448T1163 1375T1276 1270T1353 1149L1218 1102Q1193 1152 1157 1197T1069 1276T949
1331T791 1351Q658 1351 562 1307T404 1183T313 988T283 734Q283 595 315 480T412 280T574 150T801 103Q884 103 953 119T1078 160T1176 217T1245 279V593H808V709H1384V222Q1340 173 1282 129T1150 51T990 -1T801 -21Z" />
<glyph unicode="H" glyph-name="H" horiz-adv-x="1589" d="M1245 0V698H347V0H199V1454H347V824H1245V1454H1393V0H1245Z" />
<glyph unicode="I" glyph-name="I" horiz-adv-x="544" d="M199 0V1454H347V0H199Z" />
<glyph unicode="J" glyph-name="J" horiz-adv-x="1067" d="M472 -21Q303 -21 201 65T61 338L205 365Q218 295 243 246T303 165T382 118T476 103Q601 103 664 183T728 415V1329H450V1454H875V421Q875 320 849 239T773 99T647 10T472 -21Z" />
<glyph unicode="K" glyph-name="K" horiz-adv-x="1307" d="M1116 0L503 751L347 591V0H199V1454H347V759L1029 1454H1206L599 845L1295 0H1116Z" />
<glyph unicode="L" glyph-name="L" horiz-adv-x="1125" d="M199 0V1454H347V125H1060V0H199Z" />
<glyph unicode="M" glyph-name="M" horiz-adv-x="1883" d="M1549 0V1020Q1549 1073 1551 1122Q1552 1171 1553 1209Q1554 1253 1556 1293Q1539 1249 1522 1205Q1508 1167 1490 1122T1454 1038L1013 0H880L430 1038Q415 1069 398 1113Q381 1156 365 1196Q347 1242
328 1293Q330 1245 332 1197Q333 1156 333 1109T334 1020V0H199V1454H395L873 364Q876 359 887 329Q898 298 911 263Q925 222 944 172Q967 226 986 268Q1001 306 1014 338Q1027 369 1029 374L1489 1454H1685V0H1549Z" />
<glyph unicode="N" glyph-name="N" horiz-adv-x="1650" d="M1277 0L328 1277Q330 1233 332 1187Q333 1147 333 1101T334 1014V0H199V1454H368L1325 169Q1324 212 1321 258Q1318 298 1318 348T1317 451V1454H1453V0H1277Z" />
<glyph unicode="O" glyph-name="O" horiz-adv-x="1633" d="M1503 734Q1503 564 1456 425T1321 187T1105 34T817 -21Q646 -21 518 35T304 192T175 431T132 734Q132 904 177 1041T309 1275T523 1423T817 1476Q982 1476 1110 1423T1325 1273T1458 1040T1503 734ZM1349
734Q1349 873 1315 987T1214 1182T1047 1307T817 1351Q684 1351 584 1307T417 1183T317 988T283 734Q283 595 317 480T420 280T587 150T817 103Q955 103 1055 150T1221 281T1317 481T1349 734Z" />
<glyph unicode="P" glyph-name="P" horiz-adv-x="1331" d="M1218 1024Q1218 935 1188 855T1096 714T943 617T728 580H347V0H199V1454H715Q840 1454 934 1423T1091 1336T1186 1201T1218 1024ZM1067 1023Q1067 1171 975 1253T698 1335H347V698H706Q799 698 867 722T979
791T1045 894T1067 1023Z" />
<glyph unicode="Q" glyph-name="Q" horiz-adv-x="1633" d="M1503 734Q1503 578 1464 448T1350 221T1169 65T926 -10Q969 -148 1037 -211T1218 -275Q1244 -275 1276 -271T1331 -262V-372Q1302 -381 1261 -386T1179 -391Q1095 -391 1032 -367T921 -296T837 -178T774
-17Q614 -12 494 46T293 204T173 439T132 734Q132 904 177 1041T309 1275T523 1423T817 1476Q982 1476 1110 1423T1325 1273T1458 1040T1503 734ZM1349 734Q1349 873 1315 987T1214 1182T1047 1307T817 1351Q684 1351 584 1307T417 1183T317 988T283 734Q283 595
317 480T420 280T587 150T817 103Q955 103 1055 150T1221 281T1317 481T1349 734Z" />
<glyph unicode="R" glyph-name="R" horiz-adv-x="1353" d="M1091 0L695 623H347V0H199V1454H715Q833 1454 926 1426T1084 1346T1183 1219T1218 1046Q1218 978 1197 912T1130 790T1014 696T844 642L1267 0H1091ZM1067 1045Q1067 1116 1042 1170T969 1261T854 1316T702
1335H347V740H709Q802 740 870 764T981 828T1045 925T1067 1045Z" />
<glyph unicode="S" glyph-name="S" horiz-adv-x="1367" d="M1236 393Q1236 304 1203 229T1101 99T930 11T688 -21Q439 -21 298 72T119 337L264 369Q279 310 308 261T388 176T513 119T689 99Q774 99 847 115T974 166T1058 256T1089 387Q1089 468 1050 519T949 604T808
658T653 698Q597 712 541 727T434 764T338 813T260 880T207 973T188 1095Q188 1196 226 1268T332 1386T491 1454T691 1476Q814 1476 901 1455T1049 1394T1148 1293T1206 1153L1059 1122Q1046 1179 1019 1223T948 1297T840 1343T689 1360Q591 1360 523 1340T413
1285T353 1203T334 1102Q334 1032 365 986T450 909T575 857T725 817Q786 801 847 785T965 748T1071 697T1156 626T1214 528T1236 393Z" />
<glyph unicode="T" glyph-name="T" horiz-adv-x="1220" d="M688 1329V0H537V1329H26V1454H1198V1329H688Z" />
<glyph unicode="U" glyph-name="U" horiz-adv-x="1533" d="M751 -21Q633 -21 530 11T352 109T232 277T188 520V1454H337V534Q337 421 369 340T459 206T592 129T755 103Q840 103 919 129T1059 210T1158 348T1196 547V1454H1344V541Q1344 397 1298 292T1171 117T983
14T751 -21Z" />
<glyph unicode="V" glyph-name="V" horiz-adv-x="1277" d="M719 0H559L13 1454H173L547 408Q564 361 580 312T609 221Q623 173 637 126Q651 170 667 218Q681 259 697 309Q713 359 731 408L1102 1454H1262L719 0Z" />
<glyph unicode="W" glyph-name="W" horiz-adv-x="2039" d="M1576 0H1406L1099 998Q1087 1038 1073 1090T1047 1192Q1033 1249 1019 1307Q1006 1249 992 1192Q980 1143 967 1090T940 998L636 0H466L13 1454H169L463 490Q484 424 500 361T530 246L559 133Q575 203
592 270Q606 328 623 390T655 501L947 1454H1093L1385 501Q1400 455 1417 392T1449 271Q1465 203 1483 133Q1485 133 1494 169Q1503 205 1517 259T1548 376T1582 490L1870 1454H2029L1576 0Z" />
<glyph unicode="X" glyph-name="X" horiz-adv-x="1249" d="M1066 0L626 662L183 0H21L541 765L63 1454H226L626 858L1023 1454H1186L719 765L1228 0H1066Z" />
<glyph unicode="Y" glyph-name="Y" horiz-adv-x="1214" d="M680 637V0H533V637L10 1454H173L606 762L1040 1454H1202L680 637Z" />
<glyph unicode="Z" glyph-name="Z" horiz-adv-x="1293" d="M1215 0H76V116L1006 1329H150V1454H1179V1339L250 125H1215V0Z" />
<glyph unicode="[" glyph-name="bracketleft" horiz-adv-x="648" d="M192 -470V1500H615V1397H328V-364H615V-470H192Z" />
<glyph unicode="\" glyph-name="backslash" horiz-adv-x="841" d="M676 0L23 1503H161L818 0H676Z" />
<glyph unicode="]" glyph-name="bracketright" horiz-adv-x="648" d="M32 -470V-364H319V1397H32V1500H454V-470H32Z" />
<glyph unicode="^" glyph-name="asciicircum" horiz-adv-x="1142" d="M970 512L570 1365L173 512H49L493 1454H649L1095 512H970Z" />
<glyph unicode="_" glyph-name="underscore" horiz-adv-x="1057" d="M-21 -258V-182H1077V-258H-21Z" />
<glyph unicode="`" glyph-name="grave" horiz-adv-x="613" d="M433 1175L126 1464V1489H288L526 1195V1175H433Z" />
<glyph unicode="a" glyph-name="a" horiz-adv-x="1225" d="M1082 -10Q1031 -10 996 4T938 48T905 120T891 219H888Q828 111 724 45T473 -21Q391 -21 325 -1T212 58T141 152T116 279Q116 373 156 438T266 543T426 603T619 624L888 628V685Q888 835 815 900T605
965Q539 965 488 954T399 919T339 855T308 759L163 774Q173 838 204 893T290 987T423 1049T606 1071Q813 1071 921 975T1029 695V264Q1029 178 1050 134T1133 90Q1148 90 1167 94T1200 101V4Q1171 -4 1141 -7T1082 -10ZM888 529L648 522Q570 521 500 510T377 473T293
401T262 285Q262 196 317 146T491 95Q583 95 656 127T781 208T860 319T888 440V529Z" />
<glyph unicode="b" glyph-name="b" horiz-adv-x="1277" d="M1166 530Q1166 413 1139 312T1054 137T908 21T702 -21Q569 -21 468 36T315 193H312Q312 165 311 132T308 71T305 23T302 0H169Q169 5 169 25T171 77Q172 107 172 145T173 224V1499H315V1024Q315 993
315 963T313 907Q312 877 311 851H315Q374 958 472 1014T722 1071Q836 1071 919 1030T1057 916T1139 745T1166 530ZM1020 530Q1020 631 999 710T934 845T824 931T668 961Q597 961 533 939T419 865T341 729T311 522Q311 402 340 319T417 185T530 112T666 89Q838
89 929 203T1020 530Z" />
<glyph unicode="c" glyph-name="c" horiz-adv-x="1164" d="M1060 303Q1046 239 1012 180T922 77T789 6T610 -21Q484 -21 390 19T234 131T141 302T110 519Q110 648 144 750T243 924T401 1033T615 1071Q713 1071 790 1047T922 980T1011 880T1059 756L916 742Q897
838 822 901T611 964Q524 964 457 934T344 848T275 712T252 530Q252 313 347 201T613 89Q749 89 826 153T925 328L1060 303Z" />
<glyph unicode="d" glyph-name="d" horiz-adv-x="1277" d="M974 0Q974 3 972 24Q970 44 968 73T965 137T964 201H962Q903 94 806 37T555 -21Q441 -21 357 20T219 135T137 307T110 522Q110 641 138 741T224 914T370 1029T575 1071Q712 1071 811 1014T962 858H964Q964
862 964 878T963 921Q962 946 962 977T962 1040V1499H1103V224Q1103 184 1103 146T1105 77Q1106 46 1106 26T1107 0H974ZM966 530Q966 650 937 733T860 867T747 941T611 964Q439 964 347 850T255 522Q255 422 276 342T342 206T452 120T609 89Q680 89 744 112T858
187T937 324T966 530Z" />
<glyph unicode="e" glyph-name="e" horiz-adv-x="1200" d="M255 497Q255 410 276 335T343 205T457 118T622 86Q744 86 827 139T944 281L1076 258Q1059 214 1026 165T939 75T807 7T617 -21Q501 -21 407 14T248 120T146 294T110 533Q110 684 153 787T268 953T429
1044T613 1071Q738 1071 829 1031T978 919T1065 747T1093 529V497H255ZM613 964Q546 964 484 945T373 882T293 769T258 601H953Q947 685 925 752T861 866T758 938T613 964Z" />
<glyph unicode="f" glyph-name="f" horiz-adv-x="580" d="M341 942V0H201V942H46V1053H201V1215Q201 1275 211 1326T248 1416T323 1477T448 1499Q477 1499 507 1496T559 1489V1380Q542 1383 520 1385T477 1388Q435 1388 409 1375T367 1339T346 1282T341 1205V1053H559V942H341Z"
/>
<glyph unicode="g" glyph-name="g" horiz-adv-x="1277" d="M1103 828V30Q1103 -213 976 -341T609 -470Q507 -470 430 -451T296 -397T205 -314T152 -205L292 -182Q319 -264 399 -314T611 -364Q693 -364 757 -340T867 -269T937 -148T962 23Q962 49 963 81Q964 112
964 141V208H962Q903 99 806 43T555 -13Q441 -13 357 27T219 140T137 311T110 526Q110 645 138 744T224 916T370 1030T575 1071Q712 1071 811 1014T962 858H964Q964 886 965 919T968 981T972 1030Q974 1050 974 1053H1107Q1107 1047 1107 1027T1105 976Q1104 946
1104 908T1103 828ZM966 533Q966 651 937 733T860 866T747 941T611 964Q439 964 347 851T255 526Q255 427 276 348T342 212T452 126T609 95Q680 95 744 118T858 192T937 328T966 533Z" />
<glyph unicode="h" glyph-name="h" horiz-adv-x="1251" d="M947 0V633Q947 707 931 767T880 871T788 938T653 962Q579 962 517 933T410 854T340 736T315 590V0H173V1500H315V1046Q315 1011 314 975Q312 938 311 908Q310 877 309 856Q307 835 307 831H311Q377 953
472 1012T702 1071Q804 1071 876 1042T995 961T1064 834T1086 668V0H947Z" />
<glyph unicode="i" glyph-name="i" horiz-adv-x="488" d="M173 1338V1500H315V1338H173ZM173 0V1053H315V0H173Z" />
<glyph unicode="j" glyph-name="j" horiz-adv-x="488" d="M173 1338V1500H315V1338H173ZM89 -470Q63 -470 34 -468T-17 -463V-357Q-6 -360 17 -362T52 -364Q90 -364 113 -351T150 -312T168 -250T173 -165V1053H315V-172Q315 -233 307 -288T274 -383T205 -446T89 -470Z" />
<glyph unicode="k" glyph-name="k" horiz-adv-x="1076" d="M890 0L461 522L315 390V0H173V1500H315V534L858 1053H1029L559 613L1059 0H890Z" />
<glyph unicode="l" glyph-name="l" horiz-adv-x="488" d="M173 0V1500H315V0H173Z" />
<glyph unicode="m" glyph-name="m" horiz-adv-x="1947" d="M1642 0V617Q1642 691 1628 754T1582 864T1497 936T1367 962Q1299 962 1241 934T1139 856T1073 739T1049 593V0H909V617Q909 691 895 754T848 864T763 936T633 962Q565 962 507 933T405 854T339 736T315
590V0H173V817Q173 851 173 890T171 964Q170 998 170 1022T169 1053H298Q298 1049 300 1021Q301 992 302 957T305 886T307 831H311Q373 953 464 1012T684 1071Q759 1071 816 1052T915 1000T985 920T1027 817H1031Q1093 940 1188 1005T1416 1071Q1518 1071 1588
1038T1701 947T1762 812T1781 649V0H1642Z" />
<glyph unicode="n" glyph-name="n" horiz-adv-x="1251" d="M947 0V617Q947 691 932 754T881 864T790 936T653 962Q579 962 517 933T410 854T340 736T315 590V0H173V817Q173 851 173 890T171 964Q170 998 170 1022T169 1053H298Q298 1049 300 1021Q301 992 302
957T305 886T307 831H311Q377 953 472 1012T702 1071Q809 1071 882 1038T1001 947T1066 812T1086 649V0H947Z" />
<glyph unicode="o" glyph-name="o" horiz-adv-x="1253" d="M1146 526Q1146 406 1113 306T1014 134T850 20T622 -21Q498 -21 402 19T242 132T144 305T110 526Q110 644 141 743T237 915T398 1029T627 1071Q766 1071 865 1030T1025 917T1116 745T1146 526ZM998 526Q998
751 906 857T632 964Q450 964 353 855T255 526Q255 414 281 332T356 196T471 116T619 89Q800 89 899 195T998 526Z" />
<glyph unicode="p" glyph-name="p" horiz-adv-x="1277" d="M1169 530Q1169 413 1141 312T1054 137T908 21T702 -21Q569 -21 469 36T315 193H311Q311 192 312 174Q312 156 313 128Q313 99 314 66Q315 32 315 0V-470H173V828Q173 869 173 907T171 976Q170 1006 170
1026T169 1053H302Q303 1050 304 1030T307 979Q308 948 310 914Q311 880 311 851H315Q375 958 472 1015T722 1073Q837 1073 921 1032T1060 918T1142 746T1169 530ZM1023 530Q1023 631 1001 711T935 847T824 933T668 964Q597 964 533 941T419 865T341 729T311 522Q311
402 340 319T417 185T530 112T666 89Q838 89 930 203T1023 530Z" />
<glyph unicode="q" glyph-name="q" horiz-adv-x="1277" d="M1103 828V-470H962V18Q962 44 963 76Q964 107 964 135V201H962Q903 94 806 37T555 -21Q441 -21 357 20T219 135T137 307T110 522Q110 641 138 741T224 914T370 1029T575 1071Q712 1071 811 1014T962
858H964Q964 886 965 919T968 981T972 1030Q974 1050 974 1053H1107Q1107 1047 1107 1027T1105 976Q1104 946 1104 908T1103 828ZM966 530Q966 650 937 733T860 867T747 941T611 964Q439 964 347 850T255 522Q255 422 276 342T342 206T452 120T609 89Q680 89 744
112T858 187T937 324T966 530Z" />
<glyph unicode="r" glyph-name="r" horiz-adv-x="712" d="M599 956Q528 956 475 921T386 827T333 692T315 533V0H173V792Q173 827 173 870T171 952Q170 991 170 1019T169 1053H298Q298 1049 300 1019Q301 988 303 950Q304 911 305 872T307 813H311Q332 878 359
926T424 1006T510 1054T622 1071Q668 1071 695 1060V944Q677 951 653 953T599 956Z" />
<glyph unicode="s" glyph-name="s" horiz-adv-x="1050" d="M957 292Q957 219 928 162T844 64T708 1T524 -21Q432 -21 358 -8T227 37T132 120T76 250L208 279Q222 219 249 181T318 121T411 92T524 84Q588 84 642 95T737 131T800 191T823 279Q823 334 795 368T718
425T607 463T476 494Q410 510 347 528T233 578T152 658T121 778Q121 915 225 993T529 1071Q606 1071 673 1056T793 1010T882 928T931 809L801 792Q792 842 767 875T705 929T623 957T529 966Q392 966 323 919T254 792Q254 744 277 713T342 660T441 624T569 593Q639
577 708 558T833 505T923 421T957 292Z" />
<glyph unicode="t" glyph-name="t" horiz-adv-x="609" d="M404 -17Q295 -17 239 43T183 226V942H44V1053H186L232 1295H325V1053H565V942H325V250Q325 169 358 131T458 93Q485 93 517 97T579 110V6Q539 -4 495 -10T404 -17Z" />
<glyph unicode="u" glyph-name="u" horiz-adv-x="1251" d="M956 0Q955 4 953 31T949 94T946 166T944 222H940Q875 97 780 38T550 -21Q442 -21 369 12T250 104T185 240T165 404V1053H304V433Q304 360 319 297T370 188T461 116T599 90Q671 90 733 118T840 197T911
316T937 463V1053H1077V236Q1077 201 1077 161T1080 87Q1081 53 1081 29T1082 0H956Z" />
<glyph unicode="v" glyph-name="v" horiz-adv-x="1057" d="M606 0H440L28 1053H178L451 319Q459 298 469 270T490 212T510 156T524 106Q530 126 539 153T558 210T579 267T599 317L881 1053H1029L606 0Z" />
<glyph unicode="w" glyph-name="w" horiz-adv-x="1718" d="M1321 0H1156L920 725Q911 753 901 788T880 858Q868 897 858 937Q846 897 835 858Q824 824 813 788Q802 752 792 722L552 0H390L36 1053H178L419 301Q427 276 436 242Q445 208 454 178Q464 143 473 106Q485
146 495 182Q504 213 514 246Q524 279 530 301L782 1053H937L1179 301Q1188 272 1198 239Q1207 205 1216 175Q1227 141 1236 106Q1246 142 1256 177Q1265 206 1275 239T1293 301L1543 1053H1682L1321 0Z" />
<glyph unicode="x" glyph-name="x" horiz-adv-x="1019" d="M824 0L508 446L188 0H36L427 541L53 1053H212L508 630L801 1053H960L587 543L984 0H824Z" />
<glyph unicode="y" glyph-name="y" horiz-adv-x="1038" d="M560 -83Q521 -182 484 -255T406 -375T319 -446T219 -470Q146 -470 97 -461V-348Q115 -352 137 -354T178 -357Q258 -357 316 -278T430 -53L448 0L28 1053H178L397 463Q399 461 408 436T431 375Q444 339
460 299Q475 258 488 222Q501 186 510 162Q519 137 520 133Q521 137 529 161T551 220T580 295Q595 335 609 370Q622 405 631 429T641 458L864 1053H1013L560 -83Z" />
<glyph unicode="z" glyph-name="z" horiz-adv-x="966" d="M68 0V112L702 938H110V1053H863V938L228 115H895V0H68Z" />
<glyph unicode="{" glyph-name="braceleft" horiz-adv-x="719" d="M537 -470Q408 -470 345 -389T281 -169V218Q281 283 267 328T225 403T157 448T63 466V566Q170 573 225 627T281 811V1200Q281 1343 343 1421T537 1500H688V1396H580Q488 1396 448 1339T408 1171V778Q408
675 355 607T215 519V516Q304 494 356 427T408 254V-139Q408 -252 448 -308T580 -364H688V-470H537Z" />
<glyph unicode="|" glyph-name="bar" horiz-adv-x="503" d="M188 -470V1500H317V-470H188Z" />
<glyph unicode="}" glyph-name="braceright" horiz-adv-x="719" d="M437 218V-169Q437 -307 374 -388T179 -470H30V-364H135Q230 -364 269 -308T308 -139V254Q308 360 361 427T503 516V519Q461 529 426 551T364 606T323 683T308 778V1171Q308 1282 269 1339T135
1396H30V1500H179Q311 1500 374 1422T437 1200V811Q437 746 451 701T493 627T561 585T655 566V466Q602 463 562 448T494 404T452 329T437 218Z" />
<glyph unicode="~" glyph-name="asciitilde" horiz-adv-x="1142" d="M817 590Q749 590 676 611T529 659Q400 708 311 708Q235 708 179 684T63 617V731Q112 771 178 794T325 818Q409 818 485 795T636 744Q680 728 733 713T833 698Q899 698 962 723T1076 792V672Q1014
624 955 607T817 590Z" />
</font>
</defs>
</svg>
